<svg xmlns="http://www.w3.org/2000/svg" viewBox="0 0 100 100">
  <defs>
    <linearGradient id="g" x1="0" y1="0" x2="0" y2="1">
      <stop offset="0" stop-color="#b6f28c"/>
      <stop offset="1" stop-color="#87e06f"/>
    </linearGradient>
  </defs>
  <rect width="100" height="100" rx="20" fill="#202326"/>
  <path d="M20 70c20-10 30-30 34-43 6 4 14 5 23 1v20c-7 3-12 3-17 0-3 7-8 14-14 20l7 8-8 8-9-14c-6 3-11 4-16 0z" fill="url(#g)"/>
  <path d="M57 17c6 3 13 3 20 0v10c-7 3-13 3-20 0z" fill="url(#g)"/>
</svg>